<svg width="1459" height="836" viewBox="0 0 1459 836" fill="none" xmlns="http://www.w3.org/2000/svg">
<path fill-rule="evenodd" clip-rule="evenodd" d="M736 0C743.811 0.702 751.478 2.202 759 4.5C821.74 28.202 883.08 55.202 943 85.5C948.51 91.345 952.34 98.179 954.5 106C982.83 183.077 981.5 259.744 950.5 336C940.07 359.426 924.24 378.259 903 392.5C897.49 395.224 891.83 397.557 886 399.5C847.81 408.603 809.81 418.27 772 428.5C758.066 432.608 744.066 432.941 730 429.5C697.856 416.592 665.856 403.425 634 390C654.774 367.715 677.774 348.215 703 331.5C731.167 319.333 751.333 299.167 763.5 271C782.94 217.9 789.61 163.234 783.5 107C780.28 75.341 769.95 46.341 752.5 20C747.867 14.365 742.867 9.032 737.5 4C736.709 2.755 736.209 1.422 736 0Z" fill="black"/>
<path fill-rule="evenodd" clip-rule="evenodd" d="M710 11C714.877 10.312 719.21 11.479 723 14.5C743.532 34.057 756.366 57.891 761.5 86C769.74 127.237 770.07 168.571 762.5 210C762.132 211.41 761.299 212.41 760 213C735.537 194.266 710.204 176.766 684 160.5C648.496 139.914 612.829 119.58 577 99.5C621.399 69.977 665.732 40.477 710 11Z" fill="#010101"/>
<path fill-rule="evenodd" clip-rule="evenodd" d="M41.0003 49C51.7293 48.988 62.3963 49.822 73.0003 51.5C178.827 67.248 284.827 81.915 391 95.5C445.904 102.103 500.904 107.77 556 112.5C578.527 122.43 600.527 133.43 622 145.5C561.031 185.104 504.698 230.77 453 282.5C443.66 289.084 433.326 291.418 422 289.5C288.976 277.72 155.976 265.72 23.0002 253.5C11.6712 250.837 4.17125 244.003 0.50025 233C-0.16675 225.333 -0.16675 217.667 0.50025 210C7.17525 162.948 14.1753 115.948 21.5002 69C24.8512 59.15 31.3513 52.483 41.0003 49Z" fill="black"/>
<path fill-rule="evenodd" clip-rule="evenodd" d="M1401 50C1418.21 48.006 1429.71 55.006 1435.5 71C1443.93 122.069 1451.43 173.236 1458 224.5C1458.72 237.739 1453.05 247.072 1441 252.5C1435.79 254.137 1430.45 255.137 1425 255.5C1302.04 266.558 1179.04 276.891 1056 286.5C1054.33 285.5 1052.67 284.5 1051 283.5C1031.75 264.585 1012.92 245.418 994.5 226C995.01 187.732 989.34 150.399 977.5 114C976.56 111.153 977.06 108.653 979 106.5C1028.37 101.2 1077.7 95.533 1127 89.5C1218.55 76.932 1309.89 63.765 1401 50Z" fill="black"/>
<path fill-rule="evenodd" clip-rule="evenodd" d="M639 158C642.294 157.759 645.294 158.592 648 160.5C683.212 180.599 716.879 202.932 749 227.5C752.6 230.371 754.6 234.037 755 238.5C751.017 252.449 745.85 265.949 739.5 279C734.046 288.121 726.88 295.621 718 301.5C688.422 318.409 661.088 338.409 636 361.5C593.894 402.603 553.56 445.27 515 489.5C514 490.17 513 490.17 512 489.5C469.373 455.263 427.206 420.43 385.5 385C384.833 383.667 384.833 382.333 385.5 381C432.701 325.466 484.201 274.299 540 227.5C571.519 202.135 604.519 178.969 639 158Z" fill="black"/>
<path fill-rule="evenodd" clip-rule="evenodd" d="M992 252C1016.6 273.765 1040.1 296.765 1062.5 321C1091.54 353.036 1120.2 385.369 1148.5 418C1153.55 423.994 1152.72 429.161 1146 433.5C1107.04 465.46 1068.37 497.79 1030 530.5C1025.4 533.04 1021.57 532.21 1018.5 528C985.65 488.15 950.99 449.814 914.5 413C913.6 410.475 914.1 408.308 916 406.5C938.13 390.731 954.96 370.564 966.5 346C979.68 315.963 988.18 284.629 992 252Z" fill="#010101"/>
<path fill-rule="evenodd" clip-rule="evenodd" d="M363 407C368.425 406.878 373.092 408.712 377 412.5C416.212 445.884 455.545 479.05 495 512C407.214 616.61 323.048 723.95 242.5 834C240.257 835.78 237.757 836.28 235 835.5C189.883 802.05 145.05 768.22 100.5 734C99.8333 732.33 99.8333 730.67 100.5 729C184.439 618.8 271.939 511.47 363 407Z" fill="black"/>
<path fill-rule="evenodd" clip-rule="evenodd" d="M1170 448C1172.08 447.972 1173.92 448.639 1175.5 450C1250.63 539.78 1323.46 631.28 1394 724.5C1390.7 728.13 1387.03 731.47 1383 734.5C1340.65 764.68 1298.65 795.34 1257 826.5C1255.23 827.47 1253.39 828.3 1251.5 829C1248.51 827.35 1246.18 825.01 1244.5 822C1180.9 732.39 1114.23 645.06 1044.5 560C1043.72 558.77 1043.22 557.44 1043 556C1044.4 553.09 1046.4 550.59 1049 548.5C1089.82 515.51 1130.15 482.01 1170 448Z" fill="black"/>
</svg>
