<?xml version="1.0" encoding="utf-8"?>
<!-- Generator: Adobe Illustrator 23.0.1, SVG Export Plug-In . SVG Version: 6.00 Build 0)  -->
<svg version="1.1" id="Layer_1" xmlns="http://www.w3.org/2000/svg" xmlns:xlink="http://www.w3.org/1999/xlink" x="0px" y="0px"
	 viewBox="0 0 226 65" style="enable-background:new 0 0 226 65;" xml:space="preserve">
<style type="text/css">
	.st0{fill:#999999;}
	.st1{fill:#F6B764;}
</style>
<g>
	<path class="st0" d="M77.4,52.8h4.4c1.7,0,2.6,1,2.6,2.4c0,1.2-0.8,2-1.6,2.1c1,0.2,1.8,1.2,1.8,2.3c0,1.5-1,2.5-2.7,2.5h-4.5V52.8
		z M81.5,56.8c0.9,0,1.5-0.6,1.5-1.4c0-0.8-0.5-1.4-1.5-1.4h-2.7v2.7H81.5z M81.5,60.9c1,0,1.6-0.6,1.6-1.5c0-0.8-0.5-1.4-1.6-1.4
		h-2.8v2.9H81.5z"/>
	<path class="st0" d="M90.8,61.2c-0.5,0.6-1.4,1.1-2.4,1.1c-1.4,0-2.2-0.7-2.2-2.2v-4.8h1.3v4.4c0,1.1,0.6,1.5,1.4,1.5
		c0.8,0,1.5-0.4,1.9-1v-4.9h1.3v6.8h-1.3V61.2z"/>
	<path class="st0" d="M93.9,53.4c0-0.4,0.4-0.8,0.8-0.8c0.4,0,0.8,0.4,0.8,0.8s-0.4,0.8-0.8,0.8C94.3,54.2,93.9,53.9,93.9,53.4z
		 M94.1,55.4h1.3v6.8h-1.3V55.4z"/>
	<path class="st0" d="M97.3,52.8h1.3v9.3h-1.3V52.8z"/>
	<path class="st0" d="M105.4,61.2c-0.5,0.7-1.3,1.1-2.2,1.1c-1.8,0-3-1.3-3-3.5c0-2.2,1.3-3.6,3-3.6c0.9,0,1.7,0.4,2.2,1.1v-3.6h1.3
		v9.3h-1.3V61.2z M105.4,57.3c-0.4-0.5-1.1-1-1.9-1c-1.3,0-2,1-2,2.4c0,1.4,0.8,2.4,2,2.4c0.8,0,1.5-0.4,1.9-1V57.3z"/>
	<path class="st0" d="M108.5,53.4c0-0.4,0.4-0.8,0.8-0.8c0.4,0,0.8,0.4,0.8,0.8s-0.4,0.8-0.8,0.8C108.9,54.2,108.5,53.9,108.5,53.4z
		 M108.7,55.4h1.3v6.8h-1.3V55.4z"/>
	<path class="st0" d="M116.5,57.8c0-1.1-0.6-1.5-1.4-1.5c-0.8,0-1.5,0.5-1.9,1v4.8H112v-6.8h1.3v1c0.4-0.5,1.3-1.1,2.4-1.1
		c1.4,0,2.2,0.8,2.2,2.2v4.7h-1.3V57.8z"/>
	<path class="st0" d="M120.3,63c0.6,0.6,1.2,0.9,2.2,0.9c1.1,0,2.1-0.5,2.1-1.9V61c-0.5,0.7-1.3,1.2-2.2,1.2c-1.8,0-3-1.3-3-3.5
		c0-2.2,1.3-3.5,3-3.5c0.9,0,1.7,0.4,2.2,1.1v-1h1.3v6.5c0,2.3-1.7,3-3.4,3c-1.1,0-2-0.2-2.8-1L120.3,63z M124.6,57.3
		c-0.4-0.5-1.1-1-1.9-1c-1.3,0-2,1-2,2.4c0,1.4,0.8,2.4,2,2.4c0.8,0,1.5-0.5,1.9-1V57.3z"/>
	<path class="st0" d="M135.7,61.4c-0.5,0.6-1.3,0.9-2.2,0.9c-1.1,0-2.4-0.8-2.4-2.2c0-1.5,1.2-2.2,2.4-2.2c0.9,0,1.7,0.3,2.2,0.9
		v-1.1c0-0.8-0.7-1.3-1.7-1.3c-0.8,0-1.4,0.3-2,0.9l-0.5-0.9c0.8-0.7,1.7-1.1,2.8-1.1c1.5,0,2.7,0.6,2.7,2.4v4.6h-1.3V61.4z
		 M135.7,59.5c-0.4-0.5-1-0.8-1.7-0.8c-0.9,0-1.6,0.5-1.6,1.3c0,0.8,0.6,1.3,1.6,1.3c0.7,0,1.4-0.3,1.7-0.8V59.5z"/>
	<path class="st0" d="M142.6,52.8h4.4c1.7,0,2.6,1,2.6,2.4c0,1.2-0.8,2-1.6,2.1c1,0.2,1.8,1.2,1.8,2.3c0,1.5-1,2.5-2.7,2.5h-4.5
		V52.8z M146.7,56.8c0.9,0,1.5-0.6,1.5-1.4c0-0.8-0.5-1.4-1.5-1.4H144v2.7H146.7z M146.8,60.9c1,0,1.6-0.6,1.6-1.5
		c0-0.8-0.5-1.4-1.6-1.4H144v2.9H146.8z"/>
	<path class="st0" d="M154.4,55.2c2,0,3.3,1.6,3.3,3.7v0.3h-5.4c0.1,1.1,0.9,2.1,2.3,2.1c0.7,0,1.5-0.3,2-0.8l0.6,0.8
		c-0.7,0.7-1.6,1-2.7,1c-2,0-3.5-1.4-3.5-3.6C151,56.8,152.5,55.2,154.4,55.2z M152.4,58.3h4.1c0-0.9-0.6-2-2.1-2
		C153.1,56.2,152.4,57.3,152.4,58.3z"/>
	<path class="st0" d="M159.6,60.6v-4.2h-1.1v-1.1h1.1v-1.8h1.3v1.8h1.4v1.1h-1.4v3.9c0,0.5,0.2,0.8,0.7,0.8c0.3,0,0.6-0.1,0.7-0.3
		l0.3,1c-0.3,0.3-0.7,0.4-1.3,0.4C160.1,62.3,159.6,61.7,159.6,60.6z"/>
	<path class="st0" d="M163.8,60.6v-4.2h-1.1v-1.1h1.1v-1.8h1.3v1.8h1.4v1.1h-1.4v3.9c0,0.5,0.2,0.8,0.7,0.8c0.3,0,0.6-0.1,0.7-0.3
		l0.3,1c-0.3,0.3-0.7,0.4-1.3,0.4C164.4,62.3,163.8,61.7,163.8,60.6z"/>
	<path class="st0" d="M170.8,55.2c2,0,3.3,1.6,3.3,3.7v0.3h-5.4c0.1,1.1,0.9,2.1,2.3,2.1c0.7,0,1.5-0.3,2-0.8l0.6,0.8
		c-0.7,0.7-1.6,1-2.7,1c-2,0-3.5-1.4-3.5-3.6C167.5,56.8,168.9,55.2,170.8,55.2z M168.8,58.3h4.1c0-0.9-0.6-2-2.1-2
		C169.5,56.2,168.8,57.3,168.8,58.3z"/>
	<path class="st0" d="M175.7,55.4h1.3v1c0.5-0.7,1.3-1.2,2.2-1.2v1.3c-0.1,0-0.3,0-0.4,0c-0.6,0-1.5,0.5-1.8,1v4.7h-1.3V55.4z"/>
	<path class="st0" d="M184.1,52.8h6.3V54h-4.9v2.7h4.8V58h-4.8v4.1h-1.4V52.8z"/>
	<path class="st0" d="M196.4,61.2c-0.5,0.6-1.4,1.1-2.4,1.1c-1.4,0-2.2-0.7-2.2-2.2v-4.8h1.3v4.4c0,1.1,0.6,1.5,1.4,1.5
		c0.8,0,1.5-0.4,1.9-1v-4.9h1.3v6.8h-1.3V61.2z"/>
	<path class="st0" d="M199.9,60.6v-4.2h-1.1v-1.1h1.1v-1.8h1.3v1.8h1.4v1.1h-1.4v3.9c0,0.5,0.2,0.8,0.7,0.8c0.3,0,0.6-0.1,0.7-0.3
		l0.3,1c-0.3,0.3-0.7,0.4-1.3,0.4C200.5,62.3,199.9,61.7,199.9,60.6z"/>
	<path class="st0" d="M208.5,61.2c-0.5,0.6-1.4,1.1-2.4,1.1c-1.4,0-2.2-0.7-2.2-2.2v-4.8h1.3v4.4c0,1.1,0.6,1.5,1.4,1.5
		c0.8,0,1.5-0.4,1.9-1v-4.9h1.3v6.8h-1.3V61.2z"/>
	<path class="st0" d="M211.8,55.4h1.3v1c0.5-0.7,1.3-1.2,2.2-1.2v1.3c-0.1,0-0.3,0-0.4,0c-0.6,0-1.5,0.5-1.8,1v4.7h-1.3V55.4z"/>
	<path class="st0" d="M219.5,55.2c2,0,3.3,1.6,3.3,3.7v0.3h-5.4c0.1,1.1,0.9,2.1,2.3,2.1c0.7,0,1.5-0.3,2-0.8l0.6,0.8
		c-0.7,0.7-1.6,1-2.7,1c-2,0-3.5-1.4-3.5-3.6C216.1,56.8,217.5,55.2,219.5,55.2z M217.4,58.3h4.1c0-0.9-0.6-2-2.1-2
		C218.1,56.2,217.5,57.3,217.4,58.3z"/>
</g>
<g>
	<polygon class="st1" points="9.4,3 4.2,3 4.2,8.1 4.2,30 4.2,35.1 9.4,35.1 55.1,35.1 55.1,57 4.2,57 4.2,62.1 55.1,62.1 
		60.3,62.1 60.3,57 60.3,35.1 60.3,30 55.1,30 9.4,30 9.4,8.1 60.3,8.1 60.3,3 	"/>
	<polygon class="st1" points="13.2,12 13.2,17.1 13.2,21 13.2,26.1 18.4,26.1 60.3,26.1 60.3,21 18.4,21 18.4,17.1 60.3,17.1 
		60.3,12 18.4,12 	"/>
	<polygon class="st1" points="51.3,53.1 51.3,48 51.3,44.1 51.3,39 46.1,39 4.2,39 4.2,44.1 46.1,44.1 46.1,48 4.2,48 4.2,53.1 
		46.1,53.1 	"/>
</g>
<g>
	<path d="M89.4,5c1.4,0.9,2.1,2.3,2.1,4.1v0.3h-5V9.3c0-0.5-0.2-0.9-0.5-1.2c-0.4-0.3-0.9-0.5-1.6-0.5c-0.7,0-1.3,0.1-1.6,0.3
		S82,8.3,82,8.7c0,0.4,0.2,0.7,0.6,1c0.4,0.2,1.1,0.4,1.9,0.6l2.3,0.5c3.3,0.7,4.9,2.4,4.9,5.1c0,2.1-0.7,3.7-2.1,4.7
		c-1.4,1-3.4,1.5-5.9,1.5c-1.4,0-2.7-0.2-3.8-0.6c-1.2-0.4-2.1-1.1-2.8-1.9c-0.7-0.9-1.1-1.9-1.1-3.2V16c0-0.1,0-0.2,0-0.3h5.1
		c0,0.1,0,0.2,0,0.3c0,0.5,0.2,1,0.6,1.3c0.4,0.4,1,0.5,1.9,0.5c1,0,1.6-0.1,2-0.3c0.3-0.2,0.5-0.5,0.5-0.8c0-0.4-0.2-0.7-0.7-1
		c-0.5-0.2-1.3-0.4-2.3-0.7c-1.3-0.3-2.4-0.6-3.3-0.9c-0.9-0.3-1.6-0.9-2.3-1.7c-0.6-0.8-1-1.8-1-3.2c0-1.2,0.3-2.3,1-3.1
		c0.7-0.9,1.6-1.5,2.7-1.9c1.2-0.4,2.4-0.7,3.9-0.7C86.2,3.6,88,4,89.4,5z"/>
	<path d="M99,6.7h-5.2V3H99V6.7z M99,21.8h-5.2V8.5H99V21.8z"/>
	<path d="M112.8,8.7c0.6,0.3,1.1,0.8,1.4,1.4c0.3,0.6,0.5,1.3,0.5,2v9.7h-5.2v-8.4c0-0.4-0.1-0.8-0.4-1.1c-0.3-0.3-0.6-0.5-1-0.5
		c-0.4,0-0.7,0.2-1,0.5c-0.3,0.3-0.4,0.7-0.4,1.1v8.4h-5.2V8.4h3.9l0.5,1.9c1-1.5,2.3-2.2,4.1-2.2h0.7
		C111.5,8.2,112.2,8.3,112.8,8.7z"/>
	<path d="M130.7,8.4c-0.5,0.5-1.2,0.9-2.2,1.2c0.5,0.4,0.8,0.8,1.1,1.3c0.3,0.5,0.4,1,0.4,1.5c0,0.8-0.2,1.5-0.7,2.1
		c-0.5,0.6-1.1,1.2-1.9,1.5c-0.8,0.4-1.7,0.6-2.6,0.6h-1.8c-0.5,0-0.9,0.1-1.1,0.2c-0.2,0.1-0.4,0.3-0.4,0.6c0,0.3,0.1,0.5,0.3,0.6
		c0.2,0.1,0.6,0.2,1.2,0.2h4.3c1.4,0,2.4,0.4,3.1,1.1c0.7,0.7,1,1.7,1,3c0,0.8-0.2,1.5-0.7,2.2c-0.5,0.7-1.1,1.2-1.9,1.7
		c-0.8,0.4-1.7,0.6-2.6,0.6h-6.9c-0.9,0-1.6-0.3-2.2-0.9s-0.9-1.4-0.9-2.2v-0.1c0-0.6,0.2-1.2,0.6-1.7c0.4-0.5,0.9-0.9,1.4-1.2
		c-0.4-0.3-0.7-0.6-0.9-1c-0.2-0.4-0.3-0.8-0.3-1.3c0-0.6,0.2-1.2,0.7-1.8c0.5-0.5,1-0.9,1.7-1c-0.6-0.4-1.1-0.9-1.5-1.4
		c-0.4-0.5-0.6-1.1-0.6-1.7c0-1.2,0.5-2.3,1.5-3c1-0.8,2.5-1.2,4.5-1.2h0.7c0.6,0,1.2,0.1,1.7,0.2c0.7-0.4,1.1-0.9,1.4-1.3
		c0.3-0.4,0.4-0.8,0.4-1h3.9C131.4,7,131.2,7.8,130.7,8.4z M120.8,22.1c-0.3,0.2-0.4,0.5-0.4,0.8c0,0.3,0.1,0.6,0.4,0.8
		c0.3,0.2,0.6,0.3,0.9,0.3h3.7c0.4,0,0.7-0.1,0.9-0.3c0.3-0.2,0.4-0.5,0.4-0.8c0-0.3-0.1-0.6-0.4-0.8c-0.3-0.2-0.6-0.3-0.9-0.3h-3.7
		C121.3,21.8,121,21.9,120.8,22.1z M122.6,11.2c-0.3,0.3-0.5,0.7-0.5,1.2s0.2,0.8,0.5,1.2c0.3,0.3,0.7,0.5,1.1,0.5
		c0.5,0,0.8-0.2,1.1-0.5s0.5-0.7,0.5-1.2s-0.2-0.8-0.5-1.2c-0.3-0.3-0.7-0.5-1.1-0.5C123.2,10.7,122.9,10.9,122.6,11.2z"/>
	<path d="M144.3,9.3c1.1,0.8,1.6,1.8,1.6,3.1v5.5c0,0.3,0.1,0.6,0.2,0.7c0.2,0.2,0.3,0.2,0.6,0.2c0.3,0,0.6-0.1,0.9-0.2v2.8
		c-0.6,0.4-1.4,0.6-2.6,0.6c-1.1,0-2-0.2-2.6-0.6c-0.6-0.4-1-0.9-1.2-1.6c-0.6,0.6-1.2,1.2-1.8,1.5c-0.7,0.4-1.5,0.6-2.5,0.6
		c-1.4,0-2.5-0.3-3.4-0.8s-1.3-1.6-1.3-3.2c0-1.2,0.3-2.1,1-2.8c0.7-0.7,1.7-1.1,2.9-1.4c1.3-0.3,2.9-0.4,4.8-0.4v-0.8
		c0-0.5-0.2-0.9-0.5-1.2c-0.3-0.3-0.7-0.4-1.2-0.4c-0.4,0-0.8,0.1-1.1,0.4c-0.4,0.2-0.5,0.5-0.5,0.9v0.1h-5c0-0.1,0-0.2,0-0.4
		c0-0.8,0.3-1.4,0.8-2c0.5-0.6,1.2-1.1,2.2-1.4c1-0.4,2.1-0.5,3.3-0.5h0.9C141.6,8.2,143.2,8.6,144.3,9.3z M138.3,16.4
		c-0.5,0.3-0.8,0.7-0.8,1.3c0,0.8,0.5,1.3,1.6,1.3c0.5,0,0.9-0.2,1.3-0.5c0.3-0.3,0.5-0.8,0.5-1.3v-1.2
		C139.7,15.9,138.8,16.1,138.3,16.4z"/>
	<path d="M154.3,3v18.9h-5.2V3H154.3z"/>
	<path d="M89.4,30.9h-7.1v2.9h6.6v4h-6.6v6.7h-5.4v-18h13L89.4,30.9z"/>
	<path d="M102.2,31.8c1.1,0.6,1.9,1.4,2.5,2.4c0.6,1,0.9,2.2,0.9,3.5v0.6c0,1.3-0.3,2.5-0.9,3.5c-0.6,1-1.4,1.8-2.5,2.4
		c-1.1,0.6-2.2,0.8-3.6,0.8h-0.8c-1.3,0-2.5-0.3-3.6-0.9c-1.1-0.6-1.9-1.4-2.5-2.4c-0.6-1-0.9-2.2-0.9-3.5v-0.6
		c0-1.3,0.3-2.4,0.9-3.5c0.6-1,1.4-1.8,2.5-2.4c1.1-0.6,2.2-0.9,3.6-0.9h0.8C99.9,30.9,101.1,31.2,102.2,31.8z M96.9,34.6
		c-0.4,0.4-0.5,0.8-0.5,1.3v3.9c0,0.5,0.2,0.9,0.5,1.3c0.3,0.4,0.8,0.5,1.3,0.5s0.9-0.2,1.3-0.5c0.3-0.4,0.5-0.8,0.5-1.3v-3.9
		c0-0.5-0.2-0.9-0.5-1.3c-0.4-0.4-0.8-0.5-1.3-0.5S97.3,34.3,96.9,34.6z"/>
	<path d="M120.6,40.7c0,0.3,0.1,0.6,0.2,0.7c0.2,0.2,0.3,0.2,0.6,0.2c0.3,0,0.6-0.1,0.9-0.2v2.8c-0.6,0.4-1.4,0.6-2.6,0.6
		c-1.1,0-2-0.2-2.6-0.5c-0.6-0.4-1-0.9-1.3-1.6c-0.3,0.5-0.8,0.9-1.5,1.4c-0.7,0.5-1.4,0.7-2.3,0.7h-0.7c-0.7,0-1.4-0.2-2-0.5
		c-0.6-0.3-1.1-0.8-1.4-1.4c-0.3-0.6-0.5-1.3-0.5-2v-9.7h5.2v8.4c0,0.4,0.1,0.8,0.4,1.1c0.3,0.3,0.6,0.5,1,0.5s0.7-0.2,1-0.5
		c0.3-0.3,0.4-0.7,0.4-1.1v-8.4h5.2V40.7z"/>
	<path d="M135.2,31.4c0.6,0.3,1.1,0.8,1.4,1.4c0.3,0.6,0.5,1.3,0.5,2v9.7H132v-8.4c0-0.4-0.1-0.8-0.4-1.1c-0.3-0.3-0.6-0.5-1-0.5
		c-0.4,0-0.7,0.2-1,0.5c-0.3,0.3-0.4,0.7-0.4,1.1v8.4H124V31.2h3.9l0.5,1.9c1-1.5,2.3-2.2,4.1-2.2h0.7
		C134,30.9,134.6,31.1,135.2,31.4z"/>
	<path d="M148.7,44.6l-0.5-1.5c-1,1.2-2.1,1.8-3.4,1.8c-1.1,0-2.1-0.3-2.9-0.8c-0.9-0.5-1.5-1.3-2-2.3s-0.7-2.3-0.7-3.8v-0.3
		c0-1.5,0.2-2.7,0.7-3.8c0.4-1,1-1.8,1.8-2.3c0.8-0.5,1.6-0.8,2.6-0.8c1.6,0,2.8,0.6,3.5,1.7v-6.9h5.2v18.9H148.7z M144.9,34.7
		c-0.3,0.4-0.5,0.8-0.5,1.3v3.8c0,0.5,0.2,0.9,0.5,1.3c0.3,0.4,0.7,0.5,1.2,0.5c0.5,0,0.8-0.2,1.2-0.5c0.3-0.4,0.5-0.8,0.5-1.3V36
		c0-0.5-0.2-0.9-0.5-1.3c-0.3-0.4-0.7-0.5-1.2-0.5C145.6,34.2,145.2,34.4,144.9,34.7z"/>
	<path d="M167,32.1c1.1,0.8,1.6,1.8,1.6,3.1v5.5c0,0.3,0.1,0.6,0.2,0.7c0.2,0.2,0.3,0.2,0.6,0.2c0.3,0,0.6-0.1,0.9-0.2v2.8
		c-0.6,0.4-1.4,0.6-2.6,0.6c-1.1,0-2-0.2-2.6-0.6c-0.6-0.4-1-0.9-1.2-1.6c-0.6,0.6-1.2,1.2-1.8,1.5c-0.7,0.4-1.5,0.6-2.5,0.6
		c-1.4,0-2.5-0.3-3.4-0.8s-1.3-1.6-1.3-3.2c0-1.2,0.3-2.1,1-2.8c0.7-0.7,1.7-1.1,2.9-1.4c1.3-0.3,2.9-0.4,4.8-0.4v-0.8
		c0-0.5-0.2-0.9-0.5-1.2c-0.3-0.3-0.7-0.4-1.2-0.4c-0.4,0-0.8,0.1-1.1,0.4c-0.4,0.2-0.5,0.5-0.5,0.9v0.1h-5c0-0.1,0-0.2,0-0.4
		c0-0.8,0.3-1.4,0.8-2c0.5-0.6,1.2-1.1,2.2-1.4c1-0.4,2.1-0.5,3.3-0.5h0.9C164.4,30.9,165.9,31.3,167,32.1z M161,39.1
		c-0.5,0.3-0.8,0.7-0.8,1.3c0,0.8,0.5,1.3,1.6,1.3c0.5,0,0.9-0.2,1.3-0.5c0.3-0.3,0.5-0.8,0.5-1.3v-1.2
		C162.4,38.7,161.6,38.8,161,39.1z"/>
	<path d="M177.8,31.2h3.1v3.7h-3.1v5c0,0.7,0.1,1.2,0.4,1.4c0.3,0.3,0.6,0.4,1.1,0.4c0.2,0,0.5,0,0.8-0.1c0.3-0.1,0.6-0.1,0.8-0.2
		v2.9c-0.4,0.2-1,0.3-1.7,0.4c-0.7,0.1-1.3,0.2-1.8,0.2c-1.5,0-2.7-0.3-3.6-0.8c-0.8-0.6-1.2-1.5-1.2-2.9v-6.3h-1.5v-3.7h1.7
		l1.8-4.3h3.2V31.2z"/>
	<path d="M188,29.4h-5.2v-3.7h5.2V29.4z M188,44.6h-5.2V31.2h5.2V44.6z"/>
	<path d="M201.3,31.8c1.1,0.6,1.9,1.4,2.5,2.4c0.6,1,0.9,2.2,0.9,3.5v0.6c0,1.3-0.3,2.5-0.9,3.5c-0.6,1-1.4,1.8-2.5,2.4
		c-1.1,0.6-2.2,0.8-3.6,0.8h-0.8c-1.3,0-2.5-0.3-3.6-0.9c-1.1-0.6-1.9-1.4-2.5-2.4c-0.6-1-0.9-2.2-0.9-3.5v-0.6
		c0-1.3,0.3-2.4,0.9-3.5c0.6-1,1.4-1.8,2.5-2.4c1.1-0.6,2.2-0.9,3.6-0.9h0.8C199.1,30.9,200.2,31.2,201.3,31.8z M196,34.6
		c-0.3,0.4-0.5,0.8-0.5,1.3v3.9c0,0.5,0.2,0.9,0.5,1.3c0.3,0.4,0.8,0.5,1.3,0.5s0.9-0.2,1.3-0.5c0.3-0.4,0.5-0.8,0.5-1.3v-3.9
		c0-0.5-0.2-0.9-0.5-1.3c-0.3-0.4-0.8-0.5-1.3-0.5S196.4,34.3,196,34.6z"/>
	<path d="M217.9,31.4c0.6,0.3,1.1,0.8,1.4,1.4c0.3,0.6,0.5,1.3,0.5,2v9.7h-5.2v-8.4c0-0.4-0.1-0.8-0.4-1.1c-0.3-0.3-0.6-0.5-1-0.5
		c-0.4,0-0.7,0.2-1,0.5c-0.3,0.3-0.4,0.7-0.4,1.1v8.4h-5.2V31.2h3.9l0.5,1.9c1-1.5,2.3-2.2,4.1-2.2h0.7
		C216.6,30.9,217.3,31.1,217.9,31.4z"/>
</g>
</svg>
